<svg id="Layer_1" data-name="Layer 1" xmlns="http://www.w3.org/2000/svg" viewBox="0 0 144 72"><path d="M70.15,22.45c-3.42-1.14-6.9-3.29-6.9-10.5,0-3.55,2.7-10.17,7.87-10.17,3.7,0,6.19,1.48,6.33,3.76a7,7,0,0,1-1,3.71.38.38,0,0,0,0,.1,4.78,4.78,0,0,0-1,3,4.85,4.85,0,0,0,9.7,0c0-.06,0-.12,0-.17s0-.06,0-.09C85,8.19,81.63.14,71.12.14c-7.73,0-13.35,5-13.35,11.77,0,6.12,4.27,8.69,8.89,10.56,6.66,2.7,13.44,12.1,13.44,18.63,0,2.92-.7,12.44-9.75,12.44-8.54,0-8.79-5.47-8.79-6.1,0-1.7,1.25-3.16,3.7-4.32a.59.59,0,0,0,.18-.13,7.15,7.15,0,1,0-10.16-7.7c-.6,2.35-1.11,6.25-.19,9.06,1.32,4,5.27,10.82,16.8,10.82s17.52-7.46,17.52-14.84C89.41,31.81,83.11,26,70.15,22.45Zm10-6.5a3.6,3.6,0,0,1,0-7.2h.17A3.6,3.6,0,0,1,80.19,16Zm.32-11.09.2.21.11.12a10.38,10.38,0,0,1,1.32,1.72l.12.19,0,.06c.19.32.36.65.51,1l0,0a1.76,1.76,0,0,1,.09.2l0,0a7.27,7.27,0,0,0-1.35-.61,4.87,4.87,0,0,0-.76-.15l-.38,0a5.16,5.16,0,0,0-2,.35h0a6.94,6.94,0,0,0,.31-2.38,4.49,4.49,0,0,0-1.18-2.72A11.58,11.58,0,0,1,80.51,4.86ZM59,11.91c0-4.72,3-8.44,7.69-9.87C63.57,4.4,62,9,62,12c0,3.72.89,6.25,2.2,8C61,18.19,59,15.88,59,11.91ZM57,34a5.9,5.9,0,1,1,5.31,8.47,6.59,6.59,0,0,1-1.09-.1,5.92,5.92,0,0,1-4.81-5.8A5.84,5.84,0,0,1,57,34Zm-.72,10a12.12,12.12,0,0,1-.42-4.32,7.18,7.18,0,0,0,5.11,4l.66.14.37.05a4.92,4.92,0,0,0-1.68,3.66,6.59,6.59,0,0,0,1.16,3.65A13.4,13.4,0,0,1,56.28,44Zm19.09,9.7c3.82-1.95,6-6.34,6-12.56,0-5.46-4.2-12.55-9.42-16.84C83,27.66,88.17,32.8,88.17,40.33,88.17,46.31,83.79,52.35,75.37,53.66Z"/><path d="M5.52,67.62a2,2,0,0,1,.41.69A2.61,2.61,0,0,1,5.2,71.1a3.15,3.15,0,0,1-2.14.76,4.11,4.11,0,0,1-1.19-.19,4.81,4.81,0,0,1-1-.44l-.26.45H.09l-.09-3H.5a7.38,7.38,0,0,0,.37,1,3.47,3.47,0,0,0,.55.84,2.43,2.43,0,0,0,.76.59,2.23,2.23,0,0,0,1,.21,2.12,2.12,0,0,0,.75-.11,1.24,1.24,0,0,0,.52-.32,1.31,1.31,0,0,0,.3-.48,2.06,2.06,0,0,0,.09-.64,1.79,1.79,0,0,0-.3-1,1.85,1.85,0,0,0-.89-.69l-.92-.36c-.35-.13-.65-.25-.91-.37a2.91,2.91,0,0,1-1.16-.88,2.51,2.51,0,0,1-.21-2.36A2.44,2.44,0,0,1,1,63.34a2.5,2.5,0,0,1,.85-.51,3,3,0,0,1,1-.18A3.08,3.08,0,0,1,4,62.83a5.16,5.16,0,0,1,.88.44l.26-.43h.49l.05,2.94h-.5a9.17,9.17,0,0,0-.31-1A3.29,3.29,0,0,0,4.44,64a2,2,0,0,0-.66-.58,1.92,1.92,0,0,0-.94-.21,1.41,1.41,0,0,0-1,.38,1.19,1.19,0,0,0-.42.92,1.57,1.57,0,0,0,.27,1,2,2,0,0,0,.78.62,9.5,9.5,0,0,0,.89.38c.29.1.58.22.85.34s.49.23.72.36A2.88,2.88,0,0,1,5.52,67.62Z"/><path d="M19.5,71.68H15.84v-.45l.43,0a1.49,1.49,0,0,0,.39-.08.48.48,0,0,0,.27-.23A.75.75,0,0,0,17,70.5V67.36H12.87v3.07a.82.82,0,0,0,.07.37.65.65,0,0,0,.28.26,1.64,1.64,0,0,0,.38.11,2.07,2.07,0,0,0,.43.06v.45H10.36v-.45l.43,0a1.49,1.49,0,0,0,.39-.08.5.5,0,0,0,.28-.23.75.75,0,0,0,.08-.39V64.13a.75.75,0,0,0-.08-.37.55.55,0,0,0-.28-.26,2.3,2.3,0,0,0-.4-.14,1.83,1.83,0,0,0-.42-.07v-.45H14v.45a2.58,2.58,0,0,0-.43.05l-.38.1a.45.45,0,0,0-.28.24,1,1,0,0,0-.07.38V66.8H17V64.13a.87.87,0,0,0-.08-.37.59.59,0,0,0-.28-.26,2.43,2.43,0,0,0-.41-.14,1.85,1.85,0,0,0-.41-.07v-.45H19.5v.45a2.6,2.6,0,0,0-.42.05l-.38.1a.45.45,0,0,0-.28.24,1,1,0,0,0-.07.38v6.37a.82.82,0,0,0,.07.37.65.65,0,0,0,.28.26,1.64,1.64,0,0,0,.38.11,2.08,2.08,0,0,0,.42.06Z"/><path d="M34.56,71.68h-3.9v-.45c.14,0,.32,0,.55,0a1.31,1.31,0,0,0,.45-.11.76.76,0,0,0,.29-.27.74.74,0,0,0,.09-.38V64h-.1l-3,7.52h-.31l-2.87-7.68h-.08v5.27a5,5,0,0,0,.1,1.17,1.09,1.09,0,0,0,.29.57,1.39,1.39,0,0,0,.57.25,2.79,2.79,0,0,0,.56.12v.45H23.62v-.45a3.13,3.13,0,0,0,.59-.09,1.07,1.07,0,0,0,.48-.21.94.94,0,0,0,.3-.53,6.58,6.58,0,0,0,.08-1.21V64.67A1.69,1.69,0,0,0,25,64a1,1,0,0,0-.26-.4,1.22,1.22,0,0,0-.48-.25,2.11,2.11,0,0,0-.55-.09v-.45h3l2.53,6.63,2.16-5.54a4.75,4.75,0,0,0,.2-.64,2.11,2.11,0,0,0,.09-.45h2.88v.45a2.94,2.94,0,0,0-.44.05,3.77,3.77,0,0,0-.4.1.43.43,0,0,0-.28.24,1,1,0,0,0-.08.38v6.37a.81.81,0,0,0,.08.37.6.6,0,0,0,.28.26,1.43,1.43,0,0,0,.4.11,2.32,2.32,0,0,0,.45.06Z"/><path d="M42.8,71.68h-4v-.45l.49,0a1.93,1.93,0,0,0,.44-.08.59.59,0,0,0,.3-.22.63.63,0,0,0,.1-.39v-6.4a1,1,0,0,0-.07-.36.6.6,0,0,0-.33-.25,4,4,0,0,0-.47-.14,2.34,2.34,0,0,0-.46-.07v-.45h4v.45a4.53,4.53,0,0,0-.46,0,2.51,2.51,0,0,0-.47.11.51.51,0,0,0-.32.24.87.87,0,0,0-.08.37v6.39a.75.75,0,0,0,.09.37.62.62,0,0,0,.31.25,3.61,3.61,0,0,0,.43.11,2.49,2.49,0,0,0,.5.06Z"/><path d="M55.55,67.31a4.29,4.29,0,0,1-.42,2A4,4,0,0,1,54,70.62a4.46,4.46,0,0,1-1.53.79,5.83,5.83,0,0,1-1.76.27H47.07v-.45l.47,0a1.3,1.3,0,0,0,.38-.08.53.53,0,0,0,.27-.24.74.74,0,0,0,.08-.38V64.13a.92.92,0,0,0-.07-.38.53.53,0,0,0-.28-.27,1.88,1.88,0,0,0-.42-.14,2.09,2.09,0,0,0-.38-.05v-.45H51a5.21,5.21,0,0,1,1.57.25,4.72,4.72,0,0,1,1.35.66,3.92,3.92,0,0,1,1.22,1.45A4.79,4.79,0,0,1,55.55,67.31Zm-1.53,0a5.09,5.09,0,0,0-.23-1.61,3.8,3.8,0,0,0-.69-1.25,3,3,0,0,0-1.06-.8,3.15,3.15,0,0,0-1.39-.3h-.57l-.48,0v6.78a.88.88,0,0,0,.33.79,1.93,1.93,0,0,0,1,.21,3.35,3.35,0,0,0,1.39-.27,2.51,2.51,0,0,0,1-.78,3.47,3.47,0,0,0,.57-1.21A6.35,6.35,0,0,0,54,67.31Z"/><path d="M67,65.24h-.43a2.88,2.88,0,0,0-.21-.53,3.6,3.6,0,0,0-.32-.58,3,3,0,0,0-.41-.5.78.78,0,0,0-.43-.25l-.49,0h-.9v7.06a.79.79,0,0,0,.09.38.56.56,0,0,0,.3.26,3.65,3.65,0,0,0,.47.12,3.08,3.08,0,0,0,.56.08v.45H61.07v-.45a5.17,5.17,0,0,0,.53,0,1.87,1.87,0,0,0,.5-.09.64.64,0,0,0,.3-.23.8.8,0,0,0,.09-.41V63.33h-.84l-.54,0a.78.78,0,0,0-.43.25,3,3,0,0,0-.41.5,4.32,4.32,0,0,0-.53,1.11h-.43v-2.4H67Z"/><path d="M82.65,67.62a1.89,1.89,0,0,1,.41.69,2.61,2.61,0,0,1-.73,2.79,3.15,3.15,0,0,1-2.14.76A4.11,4.11,0,0,1,79,71.67a4.81,4.81,0,0,1-1-.44l-.26.45h-.5l-.09-3h.51a6.27,6.27,0,0,0,.36,1,3.47,3.47,0,0,0,.55.84,2.55,2.55,0,0,0,.76.59,2.23,2.23,0,0,0,1,.21,2.12,2.12,0,0,0,.75-.11,1.24,1.24,0,0,0,.52-.32,1.31,1.31,0,0,0,.3-.48,2.06,2.06,0,0,0,.09-.64,1.79,1.79,0,0,0-.3-1,1.85,1.85,0,0,0-.89-.69l-.92-.36c-.35-.13-.65-.25-.91-.37a2.91,2.91,0,0,1-1.16-.88,2.3,2.3,0,0,1-.41-1.42,2.15,2.15,0,0,1,.21-.94,2.27,2.27,0,0,1,.58-.77,2.6,2.6,0,0,1,.85-.51,3,3,0,0,1,1-.18,3.08,3.08,0,0,1,1.09.18,5.16,5.16,0,0,1,.88.44l.26-.43h.5l0,2.94h-.51a9.17,9.17,0,0,0-.31-1,3.29,3.29,0,0,0-.44-.83,2,2,0,0,0-.66-.58,1.92,1.92,0,0,0-.94-.21,1.41,1.41,0,0,0-1,.38,1.19,1.19,0,0,0-.42.92,1.57,1.57,0,0,0,.27,1,2,2,0,0,0,.78.62,9.5,9.5,0,0,0,.89.38c.29.1.58.22.85.34s.49.23.72.36A2.88,2.88,0,0,1,82.65,67.62Z"/><path d="M94.25,65A2.71,2.71,0,0,1,94,66.25a2.54,2.54,0,0,1-.75.88,3.25,3.25,0,0,1-1,.51,4.7,4.7,0,0,1-1.2.16H90v2.67a.94.94,0,0,0,.07.39.51.51,0,0,0,.3.25,2.09,2.09,0,0,0,.39.08c.19,0,.37,0,.52,0v.45H87.49v-.45l.44,0a1.6,1.6,0,0,0,.39-.08.53.53,0,0,0,.27-.24.76.76,0,0,0,.09-.4V64.1a1.23,1.23,0,0,0-.07-.39.45.45,0,0,0-.29-.26,2.7,2.7,0,0,0-.47-.12,3.37,3.37,0,0,0-.4,0v-.45h4a3.15,3.15,0,0,1,2,.6A1.87,1.87,0,0,1,94.25,65Zm-1.89,1.51a1.81,1.81,0,0,0,.28-.62,2.54,2.54,0,0,0,.07-.58,3.08,3.08,0,0,0-.09-.72,1.56,1.56,0,0,0-.29-.64,1.35,1.35,0,0,0-.57-.45,2.06,2.06,0,0,0-.88-.17H90v3.91h.64a2.46,2.46,0,0,0,1.09-.21A1.58,1.58,0,0,0,92.36,66.53Z"/><path d="M102.31,71.68h-4v-.45l.49,0a2.18,2.18,0,0,0,.45-.08.69.69,0,0,0,.3-.22.7.7,0,0,0,.09-.39v-6.4a.8.8,0,0,0-.07-.36.54.54,0,0,0-.32-.25,4.65,4.65,0,0,0-.47-.14,2.54,2.54,0,0,0-.47-.07v-.45h4v.45a4.53,4.53,0,0,0-.46,0,2.71,2.71,0,0,0-.47.11.49.49,0,0,0-.31.24.75.75,0,0,0-.09.37v6.39a.66.66,0,0,0,.1.37.63.63,0,0,0,.3.25,3.61,3.61,0,0,0,.43.11,2.58,2.58,0,0,0,.5.06Z"/><path d="M115.21,71.68h-2.38c-.53-.83-1-1.54-1.43-2.15s-.89-1.22-1.38-1.86h-.91v2.8a1.13,1.13,0,0,0,.07.39.49.49,0,0,0,.29.25,2.47,2.47,0,0,0,.4.08,4.7,4.7,0,0,0,.47,0v.45H106.6v-.45l.44,0a1.49,1.49,0,0,0,.39-.08.5.5,0,0,0,.27-.24.76.76,0,0,0,.09-.4V64.09a1,1,0,0,0-.07-.39.44.44,0,0,0-.29-.25,2.32,2.32,0,0,0-.4-.1,1.91,1.91,0,0,0-.43-.06v-.45h4.08a4.44,4.44,0,0,1,1,.12,2.83,2.83,0,0,1,.89.37,1.93,1.93,0,0,1,.62.65,2,2,0,0,1,.23,1,2.29,2.29,0,0,1-.16.9,1.75,1.75,0,0,1-.46.68,2.56,2.56,0,0,1-.67.46,6.16,6.16,0,0,1-.86.34l1.08,1.45,1.06,1.44a3.15,3.15,0,0,0,.5.55,2.39,2.39,0,0,0,.44.29,1.59,1.59,0,0,0,.4.12,2.38,2.38,0,0,0,.41,0Zm-3.28-6.59a1.61,1.61,0,0,0-1.76-1.74h-1.06v3.79h.82a2,2,0,0,0,1.43-.55A2,2,0,0,0,111.93,65.09Z"/><path d="M122.59,71.68h-4v-.45l.48,0a2.18,2.18,0,0,0,.45-.08.59.59,0,0,0,.3-.22.7.7,0,0,0,.09-.39v-6.4a.8.8,0,0,0-.07-.36.54.54,0,0,0-.32-.25,4.65,4.65,0,0,0-.47-.14,2.46,2.46,0,0,0-.46-.07v-.45h4v.45a4.53,4.53,0,0,0-.46,0,2.71,2.71,0,0,0-.47.11.49.49,0,0,0-.31.24.75.75,0,0,0-.08.37v6.39a.75.75,0,0,0,.09.37.63.63,0,0,0,.3.25,3.61,3.61,0,0,0,.43.11,2.67,2.67,0,0,0,.5.06Z"/><path d="M134.07,65.24h-.43a3.65,3.65,0,0,0-.2-.53,4.61,4.61,0,0,0-.33-.58,3,3,0,0,0-.41-.5.78.78,0,0,0-.43-.25l-.48,0h-.91v7.06a.79.79,0,0,0,.09.38.6.6,0,0,0,.3.26,3.65,3.65,0,0,0,.47.12,3.08,3.08,0,0,0,.56.08v.45h-4.17v-.45a4.93,4.93,0,0,0,.53,0,1.79,1.79,0,0,0,.5-.09.59.59,0,0,0,.3-.23.8.8,0,0,0,.1-.41V63.33h-.84l-.55,0a.78.78,0,0,0-.43.25,3,3,0,0,0-.41.5,4.75,4.75,0,0,0-.33.59,3.12,3.12,0,0,0-.19.52h-.44v-2.4h7.7Z"/><path d="M143.45,67.62a2.07,2.07,0,0,1,.42.69,2.66,2.66,0,0,1-.74,2.79,3.15,3.15,0,0,1-2.14.76,4,4,0,0,1-1.18-.19,4.69,4.69,0,0,1-1-.44l-.26.45H138l-.09-3h.51a6.27,6.27,0,0,0,.36,1,3.47,3.47,0,0,0,.55.84,2.55,2.55,0,0,0,.76.59,2.26,2.26,0,0,0,1,.21,2.12,2.12,0,0,0,.75-.11,1.18,1.18,0,0,0,.52-.32,1.31,1.31,0,0,0,.3-.48,2.06,2.06,0,0,0,.09-.64,1.87,1.87,0,0,0-.29-1,1.9,1.9,0,0,0-.89-.69l-.93-.36c-.35-.13-.65-.25-.9-.37a2.78,2.78,0,0,1-1.16-.88,2.24,2.24,0,0,1-.42-1.42,2.15,2.15,0,0,1,.21-.94,2.27,2.27,0,0,1,.58-.77,2.6,2.6,0,0,1,.85-.51,3,3,0,0,1,1-.18,3.08,3.08,0,0,1,1.09.18,5.16,5.16,0,0,1,.88.44l.26-.43h.5l0,2.94h-.51a9.17,9.17,0,0,0-.31-1,3.29,3.29,0,0,0-.44-.83,2.11,2.11,0,0,0-.65-.58,2,2,0,0,0-.95-.21,1.43,1.43,0,0,0-1,.38,1.18,1.18,0,0,0-.41.92,1.57,1.57,0,0,0,.26,1,2,2,0,0,0,.78.62,9.5,9.5,0,0,0,.89.38c.3.1.58.22.85.34s.49.23.72.36A2.88,2.88,0,0,1,143.45,67.62Z"/></svg>